<?xml version="1.0" standalone="no"?>
<!DOCTYPE svg PUBLIC "-//W3C//DTD SVG 20010904//EN"
 "http://www.w3.org/TR/2001/REC-SVG-20010904/DTD/svg10.dtd">
<svg version="1.0" xmlns="http://www.w3.org/2000/svg"
 width="2000.000000pt" height="2000.000000pt" viewBox="0 0 2000.000000 2000.000000"
 preserveAspectRatio="xMidYMid meet">
<metadata>
Created by potrace 1.14, written by Peter Selinger 2001-2017
</metadata>
<g transform="translate(0.000000,2000.000000) scale(0.100000,-0.100000)"
fill="#000000" stroke="none">
<path d="M3370 19993 c-716 -43 -1446 -325 -2015 -779 -142 -113 -457 -428
-569 -569 -418 -526 -674 -1140 -763 -1830 -17 -134 -18 -447 -18 -6815 0
-6376 1 -6681 18 -6815 77 -597 258 -1088 583 -1580 135 -205 245 -337 453
-546 206 -205 337 -314 546 -454 473 -316 990 -506 1580 -582 134 -17 447 -18
6815 -18 6376 0 6681 1 6815 18 597 77 1088 258 1580 583 205 135 337 245 546
453 205 206 314 337 454 546 316 473 506 990 582 1580 17 134 18 447 18 6815
0 6376 -1 6681 -18 6815 -77 597 -258 1088 -583 1580 -135 205 -245 337 -453
546 -206 205 -337 314 -546 454 -463 309 -950 492 -1538 577 l-152 22 -6640 1
c-3652 1 -6665 0 -6695 -2z m6499 -4679 c21 -4 31 -12 31 -24 0 -13 11 -19 45
-24 36 -6 45 -11 45 -27 0 -14 7 -19 30 -19 25 0 30 -4 30 -25 0 -23 4 -25 45
-25 38 0 45 -3 45 -19 0 -13 8 -21 23 -23 14 -2 23 -11 25 -25 3 -20 9 -23 48
-23 40 0 44 -2 44 -25 0 -20 5 -25 25 -25 18 0 25 -5 25 -19 0 -15 10 -20 45
-25 35 -6 45 -11 45 -26 0 -14 11 -20 50 -25 40 -6 50 -11 50 -26 0 -14 7 -19
25 -19 20 0 25 -5 25 -25 0 -23 4 -25 45 -25 41 0 45 -2 45 -25 0 -20 5 -25
25 -25 18 0 25 -5 25 -19 0 -15 10 -20 45 -25 35 -6 45 -11 45 -26 0 -13 8
-20 28 -22 19 -2 28 -9 30 -25 3 -20 9 -23 48 -23 40 0 44 -2 44 -25 0 -20 5
-25 25 -25 18 0 25 -5 25 -20 0 -17 7 -20 45 -20 41 0 45 -2 45 -24 0 -20 6
-25 45 -30 36 -6 45 -11 45 -27 0 -14 7 -19 25 -19 18 0 25 -5 25 -19 0 -15
10 -20 45 -25 35 -6 45 -11 45 -26 0 -13 8 -20 28 -22 19 -2 28 -9 30 -25 3
-20 9 -23 48 -23 40 0 44 -2 44 -25 0 -20 5 -25 25 -25 18 0 25 -5 25 -19 0
-16 9 -21 45 -27 35 -5 45 -10 45 -25 0 -14 7 -19 25 -19 20 0 25 -5 25 -25 0
-23 4 -25 44 -25 39 0 45 -3 48 -22 3 -20 10 -23 51 -26 42 -3 47 -5 47 -28 0
-19 5 -24 25 -24 18 0 25 -5 25 -19 0 -15 10 -20 45 -25 36 -6 45 -11 45 -27
0 -14 7 -19 25 -19 20 0 25 -5 25 -25 0 -23 4 -25 44 -25 39 0 45 -3 48 -22 2
-15 11 -24 26 -26 14 -2 22 -10 22 -22 0 -14 11 -20 50 -25 40 -6 50 -11 50
-26 0 -14 7 -19 25 -19 18 0 25 -5 25 -19 0 -16 9 -21 45 -27 39 -5 45 -10 45
-30 0 -22 4 -24 45 -24 38 0 45 -3 45 -20 0 -15 7 -20 25 -20 20 0 25 -5 25
-25 0 -23 4 -25 45 -25 41 0 45 -2 45 -25 0 -21 5 -25 30 -25 23 0 30 -5 30
-19 0 -16 9 -21 45 -27 34 -5 45 -11 45 -24 0 -12 9 -20 23 -22 14 -2 23 -11
25 -25 3 -20 9 -23 48 -23 40 0 44 -2 44 -25 0 -20 5 -25 25 -25 18 0 25 -5
25 -19 0 -15 10 -20 45 -25 34 -6 45 -12 45 -25 0 -14 11 -20 45 -25 36 -6 45
-11 45 -27 0 -14 7 -19 30 -19 25 0 30 -4 30 -25 0 -23 4 -25 45 -25 41 0 45
-2 45 -25 0 -20 5 -25 25 -25 18 0 25 -5 25 -19 0 -15 10 -20 45 -25 36 -6 45
-11 45 -27 0 -13 7 -19 24 -19 18 0 25 -6 28 -22 3 -20 10 -23 51 -26 38 -3
47 -7 47 -22 0 -12 8 -20 23 -22 14 -2 23 -11 25 -25 3 -20 9 -23 48 -23 40 0
44 -2 44 -25 0 -23 4 -25 45 -25 41 0 45 -2 45 -25 0 -20 5 -25 25 -25 18 0
25 -5 25 -19 0 -15 10 -20 45 -25 36 -6 45 -11 45 -27 0 -14 7 -19 25 -19 20
0 25 -5 25 -25 0 -23 3 -25 50 -25 47 0 50 -2 50 -25 0 -20 5 -25 25 -25 18 0
25 -5 25 -19 0 -16 9 -21 45 -27 35 -5 45 -10 45 -25 0 -14 7 -19 25 -19 20 0
25 -5 25 -25 0 -23 4 -25 44 -25 39 0 45 -3 48 -22 2 -19 10 -24 45 -26 34 -3
42 -7 45 -25 2 -16 11 -23 31 -25 18 -2 27 -9 27 -22 0 -13 11 -19 45 -24 36
-6 45 -11 45 -27 0 -14 7 -19 25 -19 20 0 25 -5 25 -25 0 -23 4 -25 45 -25 38
0 45 -3 45 -20 0 -15 7 -20 25 -20 20 0 25 -5 25 -25 0 -23 4 -25 45 -25 41 0
45 -2 45 -25 0 -21 5 -25 30 -25 23 0 30 -5 30 -19 0 -16 9 -21 45 -27 34 -5
45 -11 45 -25 0 -13 11 -19 45 -25 35 -5 45 -10 45 -25 0 -14 7 -19 25 -19 20
0 25 -5 25 -25 0 -23 4 -25 45 -25 41 0 45 -2 45 -25 0 -20 5 -25 25 -25 18 0
25 -5 25 -19 0 -15 10 -20 50 -26 40 -6 50 -11 50 -26 0 -14 7 -19 25 -19 20
0 25 -5 25 -25 0 -23 4 -25 45 -25 41 0 45 -2 45 -25 0 -20 5 -25 25 -25 18 0
25 -5 25 -19 0 -15 10 -20 45 -25 34 -6 45 -12 45 -25 0 -14 11 -20 45 -25 36
-6 45 -11 45 -27 0 -14 7 -19 30 -19 25 0 30 -4 30 -25 0 -23 4 -25 45 -25 41
0 45 -2 45 -25 0 -20 5 -25 25 -25 18 0 25 -5 25 -19 0 -15 10 -20 45 -25 36
-6 45 -11 45 -27 0 -14 7 -19 25 -19 18 0 25 -5 25 -19 0 -16 9 -21 45 -27 34
-5 45 -11 45 -24 0 -13 9 -20 28 -22 19 -2 28 -9 30 -25 3 -18 11 -22 45 -25
35 -2 43 -7 45 -25 3 -20 9 -23 48 -23 40 0 44 -2 44 -25 0 -20 5 -25 25 -25
18 0 25 -5 25 -19 0 -16 9 -21 45 -27 35 -5 45 -10 45 -25 0 -14 7 -19 25 -19
20 0 25 -5 25 -25 0 -23 4 -25 45 -25 38 0 45 -3 45 -19 0 -11 5 -23 10 -26 6
-3 10 -17 10 -31 l0 -24 -410 0 c-403 0 -410 0 -410 -20 0 -19 -7 -20 -134
-20 -161 0 -196 -6 -196 -31 0 -17 -8 -19 -70 -19 -62 0 -70 -2 -70 -19 0 -15
-10 -20 -50 -26 -39 -5 -50 -11 -50 -25 0 -14 -11 -20 -50 -25 -40 -6 -50 -11
-50 -26 0 -16 -7 -19 -45 -19 -41 0 -45 -2 -45 -25 0 -20 -5 -25 -25 -25 -18
0 -25 -5 -25 -19 0 -13 -8 -21 -22 -23 -15 -2 -24 -11 -26 -24 -2 -17 -12 -23
-48 -29 -35 -5 -44 -10 -44 -26 0 -14 -7 -19 -25 -19 l-25 0 0 -2990 c0 -2952
0 -2990 -19 -2990 -16 0 -21 9 -27 45 -5 35 -10 45 -25 45 -14 0 -19 7 -19 25
0 20 -5 25 -25 25 -20 0 -25 5 -25 25 0 18 -5 25 -19 25 -16 0 -21 9 -27 45
-5 39 -10 45 -30 45 -19 0 -24 5 -24 25 0 18 -5 25 -20 25 -15 0 -20 7 -20 25
0 20 -5 25 -25 25 -23 0 -25 4 -25 45 0 41 -2 45 -25 45 -20 0 -25 5 -25 25 0
20 -5 25 -25 25 -20 0 -25 5 -25 25 0 18 -5 25 -19 25 -13 0 -21 8 -23 22 -2
15 -11 24 -25 26 -19 3 -23 10 -23 42 0 32 -4 39 -22 42 -15 2 -24 11 -26 25
-2 14 -11 23 -25 25 -14 2 -23 11 -25 26 -2 14 -10 22 -23 22 -14 0 -19 7 -19
25 0 20 -5 25 -25 25 -20 0 -25 5 -25 25 0 20 -5 25 -25 25 -20 0 -25 5 -25
25 0 18 -5 25 -19 25 -13 0 -21 8 -23 22 -2 15 -11 24 -25 26 -15 2 -23 10
-23 23 0 14 -7 19 -25 19 -20 0 -25 5 -25 25 0 20 -5 25 -25 25 -20 0 -25 5
-25 25 0 18 -5 25 -20 25 -13 0 -20 7 -20 20 0 15 -7 20 -25 20 -20 0 -25 5
-25 25 0 20 -5 25 -25 25 -20 0 -25 5 -25 25 0 20 -5 25 -25 25 -18 0 -25 5
-25 19 0 16 -9 21 -44 26 -36 6 -46 12 -48 29 -2 13 -11 22 -25 24 -15 2 -23
10 -23 23 0 14 -7 19 -25 19 -20 0 -25 5 -25 25 0 23 -4 25 -44 25 -39 0 -45
3 -48 23 -2 18 -10 23 -45 25 -34 3 -43 7 -43 22 0 13 -8 20 -27 22 -20 2 -29
9 -31 26 -3 19 -9 22 -48 22 -40 0 -44 2 -44 25 0 23 -3 25 -50 25 -42 0 -50
3 -50 19 0 20 -34 31 -96 31 -27 0 -34 4 -34 19 0 15 -10 20 -50 25 -41 5 -50
10 -50 26 0 18 -7 20 -70 20 -68 0 -70 1 -70 25 0 24 -2 25 -70 25 -62 0 -70
2 -70 19 0 20 -39 31 -112 31 -31 0 -38 4 -38 20 0 17 -7 20 -39 20 -67 0
-101 11 -101 31 0 17 -9 19 -95 19 -86 0 -95 2 -95 19 0 22 -35 31 -126 31
-56 0 -64 2 -64 19 0 17 -11 20 -95 26 -84 7 -95 10 -95 26 0 17 -8 19 -64 19
-35 0 -78 3 -95 6 l-31 7 0 1962 0 1963 -45 6 c-36 6 -45 11 -45 27 0 14 -7
19 -26 19 -17 0 -28 6 -31 20 -4 14 -17 21 -49 26 -38 5 -44 10 -44 30 0 19
-5 24 -25 24 -18 0 -25 5 -25 19 0 15 -10 20 -45 25 -36 6 -45 11 -45 27 0 14
-7 19 -25 19 -18 0 -25 5 -25 19 0 16 -9 21 -45 27 -34 5 -45 11 -45 24 0 13
-11 19 -45 24 -35 6 -45 11 -45 26 0 13 -8 20 -27 22 -20 2 -29 9 -31 26 -3
19 -9 22 -48 22 -40 0 -44 2 -44 25 0 20 -5 25 -25 25 -18 0 -25 5 -25 19 0
16 -9 21 -45 27 -35 5 -45 10 -45 25 0 14 -7 19 -25 19 -20 0 -25 5 -25 25 0
23 -4 25 -45 25 -41 0 -45 2 -45 25 0 20 -5 25 -25 25 -18 0 -25 5 -25 19 0
15 -10 20 -45 25 -35 6 -45 11 -45 26 0 13 -8 20 -27 22 -20 2 -29 9 -31 26
-3 19 -9 22 -48 22 -40 0 -44 2 -44 25 0 20 -5 25 -25 25 -18 0 -25 5 -25 19
0 16 -9 21 -45 27 -35 5 -45 10 -45 25 0 14 -7 19 -25 19 -20 0 -25 5 -25 25
0 23 -4 25 -44 25 -39 0 -45 3 -48 23 -2 16 -11 23 -30 25 -20 2 -28 9 -28 22
0 15 -10 20 -45 26 -34 5 -45 11 -45 24 0 21 -51 32 -105 23 -25 -4 -35 -11
-35 -24 0 -11 -9 -19 -22 -21 -15 -2 -24 -11 -26 -25 -3 -20 -9 -23 -48 -23
-40 0 -44 -2 -44 -25 0 -20 -5 -25 -25 -25 -18 0 -25 -5 -25 -19 0 -16 -9 -21
-44 -26 -36 -6 -46 -12 -48 -29 -2 -13 -11 -22 -25 -24 -14 -2 -23 -10 -23
-22 0 -13 -11 -19 -45 -24 -36 -6 -45 -11 -45 -27 0 -13 -7 -19 -24 -19 -18 0
-25 -6 -28 -22 -2 -19 -10 -24 -45 -26 -34 -3 -42 -7 -45 -25 -2 -16 -11 -23
-30 -25 -20 -2 -28 -9 -28 -22 0 -12 -8 -20 -22 -22 -15 -2 -24 -11 -26 -25
-3 -20 -9 -23 -48 -23 -40 0 -44 -2 -44 -25 0 -20 -5 -25 -25 -25 -18 0 -25
-5 -25 -19 0 -16 -9 -21 -45 -27 -35 -5 -45 -10 -45 -25 0 -14 -7 -19 -25 -19
-20 0 -25 -5 -25 -25 0 -23 -4 -25 -45 -25 -41 0 -45 -2 -45 -25 0 -20 -5 -25
-25 -25 -18 0 -25 -5 -25 -19 0 -15 -10 -20 -45 -25 -36 -6 -45 -11 -45 -27 0
-14 -7 -19 -25 -19 -20 0 -25 -5 -25 -25 0 -21 -5 -25 -30 -25 -23 0 -30 -5
-30 -19 0 -16 -9 -21 -45 -27 -34 -5 -45 -11 -45 -24 0 -12 -9 -20 -22 -22
-15 -2 -24 -11 -26 -25 -3 -20 -9 -23 -48 -23 -40 0 -44 -2 -44 -25 0 -20 -5
-25 -25 -25 -18 0 -25 -5 -25 -19 0 -16 -9 -21 -45 -27 -35 -5 -45 -10 -45
-25 0 -14 -7 -19 -25 -19 -20 0 -25 -5 -25 -25 0 -18 -5 -25 -20 -25 -20 0
-20 -8 -22 -1922 l-3 -1923 -67 -3 c-60 -3 -68 -5 -68 -22 0 -16 -7 -20 -34
-20 -18 0 -54 -3 -80 -6 -36 -5 -46 -11 -46 -25 0 -17 -9 -19 -89 -19 -85 0
-90 -1 -93 -22 -3 -22 -8 -23 -95 -26 -82 -2 -93 -5 -93 -21 0 -19 -40 -31
-107 -31 -26 0 -33 -4 -33 -20 0 -16 -7 -20 -37 -20 -74 0 -113 -11 -113 -31
0 -17 -8 -19 -70 -19 -62 0 -70 -2 -70 -19 0 -20 -34 -31 -101 -31 -31 0 -39
-4 -39 -19 0 -19 -39 -31 -107 -31 -26 0 -33 -4 -33 -19 0 -15 -10 -20 -50
-26 -40 -6 -50 -11 -50 -26 0 -16 -7 -19 -50 -19 -42 0 -50 -3 -50 -19 0 -20
-34 -31 -96 -31 -26 0 -33 -4 -36 -22 -2 -17 -11 -24 -30 -26 -20 -2 -28 -9
-28 -23 0 -16 -7 -19 -45 -19 -41 0 -45 -2 -45 -25 0 -23 -4 -25 -45 -25 -41
0 -45 -2 -45 -25 0 -20 -5 -25 -25 -25 -18 0 -25 -5 -25 -19 0 -15 -10 -20
-45 -25 -35 -6 -45 -11 -45 -26 0 -13 -8 -20 -27 -22 -20 -2 -29 -9 -31 -25
-3 -19 -10 -23 -42 -23 -32 0 -39 -4 -42 -22 -2 -15 -11 -24 -25 -26 -14 -2
-23 -11 -25 -25 -2 -14 -11 -23 -25 -25 -15 -2 -23 -10 -23 -23 0 -14 -7 -19
-25 -19 -20 0 -25 -5 -25 -25 0 -20 -5 -25 -25 -25 -20 0 -25 -5 -25 -25 0
-20 -5 -25 -25 -25 -18 0 -25 -5 -25 -19 0 -13 -8 -21 -22 -23 -15 -2 -24 -11
-26 -25 -2 -15 -10 -23 -23 -23 -14 0 -19 -7 -19 -25 0 -20 -5 -25 -25 -25
-20 0 -25 -5 -25 -25 0 -20 -5 -25 -25 -25 -18 0 -25 -5 -25 -20 0 -13 -7 -20
-20 -20 -15 0 -20 -7 -20 -25 0 -20 -5 -25 -25 -25 -20 0 -25 -5 -25 -24 0
-18 -6 -25 -22 -28 -15 -2 -24 -11 -26 -26 -2 -13 -10 -22 -22 -22 -13 0 -19
-11 -24 -45 -6 -36 -11 -45 -27 -45 -14 0 -19 -7 -19 -25 0 -20 -5 -25 -25
-25 -20 0 -25 -5 -25 -25 0 -18 -5 -25 -19 -25 -16 0 -21 -9 -26 -44 -6 -36
-12 -46 -29 -48 -13 -2 -22 -11 -24 -25 -2 -15 -10 -23 -23 -23 -14 0 -19 -7
-19 -25 0 -20 -5 -25 -25 -25 -23 0 -25 -4 -25 -44 0 -39 -3 -45 -22 -48 -15
-2 -24 -11 -26 -25 -2 -14 -10 -23 -22 -23 -13 0 -19 -11 -24 -45 -6 -36 -11
-45 -27 -45 -14 0 -19 -7 -19 -25 0 -20 -5 -25 -25 -25 l-25 0 0 2990 0 2990
-44 0 c-39 0 -45 3 -48 23 -2 16 -11 23 -31 25 -19 2 -27 9 -27 22 0 15 -9 19
-42 22 -36 2 -44 7 -46 26 -3 19 -9 22 -48 22 -40 0 -44 2 -44 25 0 23 -4 25
-44 25 -39 0 -45 3 -48 23 -3 19 -10 22 -50 25 -39 3 -48 7 -48 22 0 14 -10
20 -50 25 -40 6 -50 11 -50 26 0 17 -8 19 -70 19 -62 0 -70 2 -70 19 0 24 -40
31 -177 31 -96 0 -103 1 -103 20 0 20 -7 20 -374 20 -205 0 -388 3 -405 6 -21
5 -31 12 -31 25 0 16 8 19 45 19 41 0 45 2 45 25 0 21 5 25 30 25 23 0 30 5
30 19 0 16 9 21 45 27 34 5 45 11 45 25 0 13 11 19 45 25 35 5 45 10 45 25 0
14 7 19 25 19 20 0 25 5 25 25 0 23 4 25 45 25 41 0 45 2 45 25 0 20 5 25 25
25 18 0 25 5 25 19 0 15 10 20 45 25 35 6 45 11 45 26 0 13 8 20 28 22 19 2
28 9 30 26 3 19 9 22 48 22 40 0 44 2 44 25 0 20 5 25 25 25 18 0 25 5 25 19
0 15 10 20 45 25 36 6 45 11 45 27 0 14 7 19 25 19 20 0 25 5 25 25 0 23 4 25
44 25 39 0 45 3 48 23 2 18 10 23 45 25 34 3 42 7 45 25 2 16 11 23 31 25 18
2 27 9 27 22 0 13 11 19 45 24 36 6 45 11 45 27 0 14 7 19 25 19 20 0 25 5 25
25 0 23 4 25 45 25 38 0 45 3 45 20 0 15 7 20 25 20 20 0 25 5 25 24 0 23 5
25 48 28 40 3 47 6 50 26 3 16 10 22 28 22 17 0 24 6 24 19 0 16 9 21 45 27
34 5 45 11 45 25 0 13 11 19 45 25 35 5 45 10 45 25 0 14 7 19 25 19 20 0 25
5 25 25 0 23 4 25 44 25 39 0 45 3 48 23 2 16 11 23 31 25 19 2 27 9 27 22 0
15 10 20 45 26 35 5 45 10 45 25 0 14 7 19 25 19 20 0 25 5 25 25 0 23 4 25
45 25 41 0 45 2 45 25 0 20 5 25 25 25 18 0 25 5 25 19 0 15 10 20 45 25 35 6
45 11 45 26 0 13 8 20 28 22 19 2 28 9 30 26 3 19 9 22 48 22 40 0 44 2 44 25
0 23 4 25 45 25 41 0 45 2 45 25 0 20 5 25 25 25 18 0 25 5 25 19 0 15 10 20
45 25 36 6 45 11 45 27 0 14 7 19 25 19 18 0 25 5 25 19 0 16 9 21 45 27 34 5
45 11 45 24 0 13 9 20 28 22 19 2 28 9 30 25 3 18 11 22 45 25 35 2 43 7 45
26 3 16 10 22 28 22 17 0 24 6 24 19 0 16 9 21 45 27 34 5 45 11 45 24 0 13
11 19 45 24 36 6 45 11 45 27 0 14 7 19 25 19 20 0 25 5 25 25 0 23 4 25 44
25 39 0 45 3 48 23 2 16 11 23 31 25 19 2 27 9 27 22 0 15 10 20 45 26 35 5
45 10 45 25 0 14 7 19 25 19 20 0 25 5 25 25 0 23 4 25 44 25 39 0 45 3 48 23
2 14 11 23 26 25 13 2 22 10 22 22 0 13 11 19 45 24 36 6 45 11 45 27 0 14 7
19 30 19 23 0 30 5 30 19 0 16 9 21 45 27 34 5 45 11 45 25 0 13 11 19 45 25
35 5 45 10 45 25 0 14 7 19 25 19 20 0 25 5 25 25 0 23 4 25 45 25 41 0 45 2
45 25 0 20 5 25 25 25 18 0 25 5 25 19 0 15 10 20 50 26 39 5 50 11 50 25 0
12 8 20 23 22 14 2 23 11 25 26 3 19 9 22 48 22 40 0 44 2 44 25 0 20 5 25 25
25 18 0 25 5 25 19 0 16 9 21 45 27 34 5 45 11 45 24 0 13 11 19 45 24 36 6
45 11 45 27 0 13 7 19 24 19 18 0 25 6 28 23 3 19 10 22 51 25 42 3 47 5 47
28 0 19 5 24 25 24 18 0 25 5 25 19 0 15 10 20 45 25 36 6 45 11 45 27 0 14 7
19 25 19 20 0 25 5 25 25 0 23 4 25 44 25 39 0 45 3 48 23 2 16 11 23 31 25
19 2 27 9 27 22 0 15 10 20 45 26 35 5 45 10 45 25 0 14 7 19 25 19 18 0 25 5
25 19 0 16 9 21 45 27 34 5 45 11 45 25 0 13 11 19 45 25 35 5 45 10 45 25 0
14 7 19 25 19 20 0 25 5 25 25 0 23 4 25 45 25 41 0 45 2 45 25 0 21 5 25 30
25 23 0 30 5 30 19 0 16 9 21 45 27 34 5 45 11 45 24 0 12 9 20 23 22 14 2 23
11 25 26 3 19 9 22 48 22 40 0 44 2 44 25 0 20 5 25 25 25 18 0 25 5 25 19 0
15 10 20 45 25 34 6 45 12 45 25 0 14 11 20 45 25 36 6 45 11 45 27 0 14 7 19
30 19 25 0 30 4 30 25 0 23 4 25 45 25 41 0 45 2 45 25 0 20 5 25 25 25 18 0
25 5 25 19 0 15 10 20 45 25 36 6 45 11 45 27 0 13 7 19 24 19 18 0 25 6 28
23 2 18 10 23 46 25 33 3 42 7 42 22 0 13 8 20 28 22 19 2 28 9 30 26 3 19 9
22 48 22 40 0 44 2 44 25 0 20 5 25 25 25 18 0 25 5 25 19 0 16 9 21 45 27 34
5 45 11 45 24 0 17 8 21 66 29 6 0 26 -2 43 -5z m-109 -6384 l0 -690 -570 0
-570 0 0 690 0 690 570 0 570 0 0 -690z m1330 0 l0 -690 -570 0 -570 0 0 690
0 690 570 0 570 0 0 -690z m-1330 -1610 l0 -690 -570 0 -570 0 0 690 0 690
570 0 570 0 0 -690z m1330 0 l0 -690 -570 0 -570 0 0 690 0 690 570 0 570 0 0
-690z"/>
</g>
</svg>
